<mxfile host="Electron" modified="2023-08-20T14:18:45.088Z" agent="Mozilla/5.0 (X11; Linux x86_64) AppleWebKit/537.36 (KHTML, like Gecko) draw.io/21.6.8 Chrome/114.0.5735.134 Electron/25.6.0 Safari/537.36" etag="P3r1JfXMQckyqn6llcq_" version="21.6.8" type="device">
  <diagram name="Page-1" id="RpwM7F7v6CunPszRLWM4">
    <mxGraphModel dx="1223" dy="751" grid="1" gridSize="10" guides="1" tooltips="1" connect="1" arrows="1" fold="1" page="1" pageScale="1" pageWidth="850" pageHeight="1100" math="0" shadow="0">
      <root>
        <mxCell id="0" />
        <mxCell id="1" parent="0" />
        <mxCell id="TY78l-HwABCRsa_vlNKq-18" value="Application" style="rounded=1;whiteSpace=wrap;html=1;verticalAlign=top;" parent="1" vertex="1">
          <mxGeometry x="120" y="292.5" width="640" height="280" as="geometry" />
        </mxCell>
        <mxCell id="TY78l-HwABCRsa_vlNKq-1" value="Client" style="rounded=1;whiteSpace=wrap;html=1;verticalAlign=top;" parent="1" vertex="1">
          <mxGeometry x="120" y="120" width="640" height="105" as="geometry" />
        </mxCell>
        <mxCell id="TY78l-HwABCRsa_vlNKq-10" style="edgeStyle=orthogonalEdgeStyle;rounded=0;orthogonalLoop=1;jettySize=auto;html=1;entryX=0.5;entryY=0;entryDx=0;entryDy=0;dashed=1;" parent="1" source="TY78l-HwABCRsa_vlNKq-4" target="TY78l-HwABCRsa_vlNKq-6" edge="1">
          <mxGeometry relative="1" as="geometry" />
        </mxCell>
        <mxCell id="TY78l-HwABCRsa_vlNKq-4" value="Command Product" style="rounded=1;whiteSpace=wrap;html=1;" parent="1" vertex="1">
          <mxGeometry x="190" y="142.5" width="120" height="60" as="geometry" />
        </mxCell>
        <mxCell id="TY78l-HwABCRsa_vlNKq-8" style="edgeStyle=orthogonalEdgeStyle;rounded=0;orthogonalLoop=1;jettySize=auto;html=1;entryX=0.25;entryY=0;entryDx=0;entryDy=0;dashed=1;exitX=0.25;exitY=1;exitDx=0;exitDy=0;" parent="1" source="TY78l-HwABCRsa_vlNKq-5" target="TY78l-HwABCRsa_vlNKq-7" edge="1">
          <mxGeometry relative="1" as="geometry" />
        </mxCell>
        <mxCell id="TY78l-HwABCRsa_vlNKq-5" value="Query Product" style="rounded=1;whiteSpace=wrap;html=1;" parent="1" vertex="1">
          <mxGeometry x="570" y="142.5" width="120" height="60" as="geometry" />
        </mxCell>
        <mxCell id="TY78l-HwABCRsa_vlNKq-6" value="Commands API" style="rounded=1;whiteSpace=wrap;html=1;" parent="1" vertex="1">
          <mxGeometry x="190" y="362.5" width="120" height="60" as="geometry" />
        </mxCell>
        <mxCell id="TY78l-HwABCRsa_vlNKq-9" style="edgeStyle=orthogonalEdgeStyle;rounded=0;orthogonalLoop=1;jettySize=auto;html=1;entryX=0.75;entryY=1;entryDx=0;entryDy=0;exitX=0.75;exitY=0;exitDx=0;exitDy=0;dashed=1;" parent="1" source="TY78l-HwABCRsa_vlNKq-7" target="TY78l-HwABCRsa_vlNKq-5" edge="1">
          <mxGeometry relative="1" as="geometry" />
        </mxCell>
        <mxCell id="TY78l-HwABCRsa_vlNKq-7" value="Queries API" style="rounded=1;whiteSpace=wrap;html=1;" parent="1" vertex="1">
          <mxGeometry x="570" y="362.5" width="120" height="60" as="geometry" />
        </mxCell>
        <mxCell id="TY78l-HwABCRsa_vlNKq-15" style="edgeStyle=orthogonalEdgeStyle;rounded=0;orthogonalLoop=1;jettySize=auto;html=1;exitX=0.5;exitY=1;exitDx=0;exitDy=0;dashed=1;" parent="1" source="TY78l-HwABCRsa_vlNKq-11" target="TY78l-HwABCRsa_vlNKq-13" edge="1">
          <mxGeometry relative="1" as="geometry" />
        </mxCell>
        <mxCell id="TY78l-HwABCRsa_vlNKq-11" value="Read Domain Model" style="rounded=1;whiteSpace=wrap;html=1;" parent="1" vertex="1">
          <mxGeometry x="530" y="422.5" width="210" height="60" as="geometry" />
        </mxCell>
        <mxCell id="TY78l-HwABCRsa_vlNKq-12" value="Database&lt;br&gt;Postgresql" style="shape=cylinder3;whiteSpace=wrap;html=1;boundedLbl=1;backgroundOutline=1;size=15;" parent="1" vertex="1">
          <mxGeometry x="220" y="662.5" width="60" height="80" as="geometry" />
        </mxCell>
        <mxCell id="TY78l-HwABCRsa_vlNKq-13" value="Database&lt;br&gt;MongoDb" style="shape=cylinder3;whiteSpace=wrap;html=1;boundedLbl=1;backgroundOutline=1;size=15;" parent="1" vertex="1">
          <mxGeometry x="605" y="662.5" width="60" height="80" as="geometry" />
        </mxCell>
        <mxCell id="TY78l-HwABCRsa_vlNKq-17" style="edgeStyle=orthogonalEdgeStyle;rounded=0;orthogonalLoop=1;jettySize=auto;html=1;dashed=1;" parent="1" source="TY78l-HwABCRsa_vlNKq-16" target="TY78l-HwABCRsa_vlNKq-12" edge="1">
          <mxGeometry relative="1" as="geometry" />
        </mxCell>
        <mxCell id="TY78l-HwABCRsa_vlNKq-20" style="edgeStyle=orthogonalEdgeStyle;rounded=0;orthogonalLoop=1;jettySize=auto;html=1;entryX=0;entryY=0.5;entryDx=0;entryDy=0;exitX=0.75;exitY=1;exitDx=0;exitDy=0;dashed=1;" parent="1" source="TY78l-HwABCRsa_vlNKq-16" target="TY78l-HwABCRsa_vlNKq-19" edge="1">
          <mxGeometry relative="1" as="geometry" />
        </mxCell>
        <mxCell id="TY78l-HwABCRsa_vlNKq-22" value="Producer" style="edgeLabel;html=1;align=center;verticalAlign=middle;resizable=0;points=[];" parent="TY78l-HwABCRsa_vlNKq-20" vertex="1" connectable="0">
          <mxGeometry x="-0.0618" relative="1" as="geometry">
            <mxPoint x="-17" y="-30" as="offset" />
          </mxGeometry>
        </mxCell>
        <mxCell id="TY78l-HwABCRsa_vlNKq-16" value="Writer Domain Model" style="rounded=1;whiteSpace=wrap;html=1;" parent="1" vertex="1">
          <mxGeometry x="145" y="422.5" width="210" height="60" as="geometry" />
        </mxCell>
        <mxCell id="TY78l-HwABCRsa_vlNKq-21" style="edgeStyle=orthogonalEdgeStyle;rounded=0;orthogonalLoop=1;jettySize=auto;html=1;entryX=1;entryY=0.5;entryDx=0;entryDy=0;dashed=1;exitX=0.25;exitY=1;exitDx=0;exitDy=0;" parent="1" source="TY78l-HwABCRsa_vlNKq-11" target="TY78l-HwABCRsa_vlNKq-19" edge="1">
          <mxGeometry relative="1" as="geometry" />
        </mxCell>
        <mxCell id="TY78l-HwABCRsa_vlNKq-23" value="Consumer" style="edgeLabel;html=1;align=center;verticalAlign=middle;resizable=0;points=[];" parent="TY78l-HwABCRsa_vlNKq-21" vertex="1" connectable="0">
          <mxGeometry x="0.1719" y="-2" relative="1" as="geometry">
            <mxPoint x="31" y="-28" as="offset" />
          </mxGeometry>
        </mxCell>
        <mxCell id="TY78l-HwABCRsa_vlNKq-19" value="event&lt;br&gt;Rabbitmq" style="shape=process;whiteSpace=wrap;html=1;backgroundOutline=1;" parent="1" vertex="1">
          <mxGeometry x="390" y="512.5" width="100" height="40" as="geometry" />
        </mxCell>
      </root>
    </mxGraphModel>
  </diagram>
</mxfile>
